<?xml version="1.0" encoding="UTF-8" standalone="no"?>
<!DOCTYPE svg PUBLIC "-//W3C//DTD SVG 1.1//EN" "http://www.w3.org/Graphics/SVG/1.1/DTD/svg11.dtd">
<svg width="100%" height="100%" viewBox="0 0 339 84" version="1.1" xmlns="http://www.w3.org/2000/svg" xmlns:xlink="http://www.w3.org/1999/xlink" xml:space="preserve" xmlns:serif="http://www.serif.com/" style="fill-rule:evenodd;clip-rule:evenodd;stroke-linejoin:round;stroke-miterlimit:2;">
    <g>
        <path d="M163.1,0.98C140.175,0.98 121.59,19.565 121.59,42.49C121.59,44.225 121.709,45.931 121.916,47.61L150.25,21.539L150.259,21.549L150.274,21.532L174.653,43.531L184.626,34.227L185.587,33.162L203.965,49.746C204.381,47.388 204.61,44.967 204.61,42.49C204.61,19.565 186.025,0.98 163.1,0.98Z" style="fill:url(#_Linear1);"/>
        <path d="M178.503,47.005L198.143,64.728C199.975,61.847 201.462,58.727 202.545,55.422L185.737,40.255L178.503,47.005Z" style="fill:url(#_Linear2);"/>
        <path d="M143.897,79.289C149.64,82.293 156.169,84 163.1,84C168.788,84 174.207,82.854 179.142,80.784L160.412,63.882L143.897,79.289Z" style="fill:url(#_Linear3);"/>
        <path d="M150.202,54.669L132.759,70.805C134.737,72.923 136.933,74.832 139.313,76.5L156.563,60.408L150.202,54.669Z" style="fill:url(#_Linear4);"/>
        <path d="M164.203,60.345L184.095,78.295C188.287,75.832 192.013,72.661 195.096,68.935L174.712,50.541L164.203,60.345Z" style="fill:url(#_Linear5);"/>
        <path d="M150.152,47.666L150.159,47.672L150.226,47.61L150.911,48.351L160.354,56.872L170.862,47.068L150.3,28.513L123.091,53.548C124.424,58.38 126.606,62.857 129.47,66.811L150.085,47.741L150.152,47.666Z" style="fill:url(#_Linear6);"/>
        <path d="M0.145,44.514L0.145,19.23C0.145,11.968 3.911,7.664 11.04,7.664C18.168,7.664 21.934,11.968 21.934,19.23L21.934,24.206L14.939,24.206L14.939,18.759C14.939,15.666 13.461,14.388 11.241,14.388C9.022,14.388 7.543,15.666 7.543,18.759L7.543,45.052C7.543,48.145 9.022,49.356 11.241,49.356C13.461,49.356 14.939,48.145 14.939,45.052L14.939,38.193L21.934,38.193L21.934,44.514C21.934,51.777 18.168,56.08 11.04,56.08C3.911,56.08 0.145,51.777 0.145,44.514Z" style="fill:rgb(28,86,126);fill-rule:nonzero;"/>
        <path d="M25.763,8.336L33.228,8.336L38.136,45.321L43.045,8.336L49.837,8.336L42.709,55.408L32.891,55.408L25.763,8.336Z" style="fill:rgb(28,86,126);fill-rule:nonzero;"/>
        <path d="M65.702,29.518C68.057,29.518 69.334,28.443 69.334,25.08L69.334,19.499C69.334,16.136 68.057,15.061 65.702,15.061L62.206,15.061L62.206,29.518L65.702,29.518ZM54.809,8.336L65.702,8.336C73.1,8.336 76.731,12.438 76.731,19.969L76.731,24.61C76.731,32.141 73.1,36.243 65.702,36.243L62.206,36.243L62.206,55.408L54.809,55.408L54.809,8.336Z" style="fill:rgb(28,86,126);fill-rule:nonzero;"/>
        <path d="M92.194,28.51C94.951,28.51 96.633,27.3 96.633,23.533L96.633,19.903C96.633,16.54 95.489,15.061 92.867,15.061L89.505,15.061L89.505,28.51L92.194,28.51ZM82.107,8.336L93.068,8.336C100.735,8.336 104.03,11.9 104.03,19.163L104.03,22.054C104.03,26.896 102.484,29.989 99.189,31.334L99.189,31.469C102.887,32.612 104.097,36.109 104.097,41.421L104.097,49.692C104.097,51.978 104.165,53.659 104.905,55.408L97.372,55.408C96.969,54.198 96.7,53.458 96.7,49.625L96.7,41.017C96.7,36.646 95.422,35.234 92.06,35.234L89.505,35.234L89.505,55.408L82.107,55.408L82.107,8.336Z" style="fill:rgb(28,86,126);fill-rule:nonzero;"/>
        <path d="M230.657,39.378C232.478,39.378 233.569,38.442 233.569,35.842L233.569,16.913C233.569,14.313 232.478,13.377 230.657,13.377L227.745,13.377L227.745,39.378L230.657,39.378ZM222.024,8.177L230.761,8.177C236.481,8.177 239.289,11.348 239.289,17.173L239.289,35.582C239.289,41.406 236.481,44.578 230.761,44.578L222.024,44.578L222.024,8.177Z" style="fill:rgb(28,86,126);fill-rule:nonzero;"/>
        <path d="M242.824,8.177L258.424,8.177L258.424,13.377L248.545,13.377L248.545,22.997L256.397,22.997L256.397,28.197L248.545,28.197L248.545,39.378L258.424,39.378L258.424,44.578L242.824,44.578L242.824,8.177Z" style="fill:rgb(28,86,126);fill-rule:nonzero;"/>
        <path d="M261.18,8.177L268.252,8.177L274.024,29.966L274.024,8.177L279.12,8.177L279.12,44.578L273.349,44.578L266.276,18.005L266.276,44.578L261.18,44.578L261.18,8.177Z" style="fill:rgb(28,86,126);fill-rule:nonzero;"/>
        <path d="M281.563,8.177L287.336,8.177L291.132,36.778L294.928,8.177L300.181,8.177L294.668,44.578L287.075,44.578L281.563,8.177Z" style="fill:rgb(28,86,126);fill-rule:nonzero;"/>
        <path d="M302.622,8.177L318.223,8.177L318.223,13.377L308.343,13.377L308.343,22.997L316.194,22.997L316.194,28.197L308.343,28.197L308.343,39.378L318.223,39.378L318.223,44.578L302.622,44.578L302.622,8.177Z" style="fill:rgb(28,86,126);fill-rule:nonzero;"/>
        <path d="M328.779,23.777C330.911,23.777 332.211,22.841 332.211,19.929L332.211,17.121C332.211,14.521 331.327,13.377 329.299,13.377L326.699,13.377L326.699,23.777L328.779,23.777ZM320.979,8.177L329.455,8.177C335.384,8.177 337.932,10.932 337.932,16.549L337.932,18.785C337.932,22.529 336.735,24.921 334.188,25.961L334.188,26.065C337.048,26.949 337.983,29.653 337.983,33.761L337.983,40.158C337.983,41.926 338.035,43.226 338.607,44.578L332.783,44.578C332.472,43.642 332.263,43.07 332.263,40.106L332.263,33.449C332.263,30.069 331.275,28.977 328.675,28.977L326.699,28.977L326.699,44.578L320.979,44.578L320.979,8.177Z" style="fill:rgb(28,86,126);fill-rule:nonzero;"/>
        <path d="M0,77.044L0,74.766C0.273,74.834 0.546,74.858 0.82,74.858C1.822,74.858 2.3,74.379 2.3,73.331L2.3,61.098L4.807,61.098L4.807,73.263C4.807,75.883 3.622,77.136 1.162,77.136C0.706,77.136 0.364,77.113 0,77.044Z" style="fill:rgb(124,132,53);fill-rule:nonzero;"/>
        <path d="M6.9,73.263L6.9,61.098L9.406,61.098L9.406,73.445C9.406,74.584 9.884,74.994 10.682,74.994C11.479,74.994 11.958,74.584 11.958,73.445L11.958,61.098L14.373,61.098L14.373,73.263C14.373,75.815 13.097,77.273 10.636,77.273C8.176,77.273 6.9,75.815 6.9,73.263Z" style="fill:rgb(124,132,53);fill-rule:nonzero;"/>
        <path d="M16.556,61.098L19.654,61.098L22.183,70.643L22.183,61.098L24.416,61.098L24.416,77.044L21.887,77.044L18.789,65.404L18.789,77.044L16.556,77.044L16.556,61.098Z" style="fill:rgb(124,132,53);fill-rule:nonzero;"/>
        <path d="M26.69,61.098L33.525,61.098L33.525,63.375L29.196,63.375L29.196,67.59L32.636,67.59L32.636,69.868L29.196,69.868L29.196,74.766L33.525,74.766L33.525,77.044L26.69,77.044L26.69,61.098Z" style="fill:rgb(124,132,53);fill-rule:nonzero;"/>
        <path d="M38.851,73.308L38.851,72.01L41.22,72.01L41.22,73.422C41.22,74.561 41.722,74.994 42.519,74.994C43.316,74.994 43.817,74.607 43.817,73.195L43.817,71.896C43.817,70.415 43.316,69.868 42.177,69.868L41.335,69.868L41.335,67.59L42.246,67.59C43.18,67.59 43.749,67.18 43.749,65.905L43.749,64.742C43.749,63.604 43.225,63.148 42.496,63.148C41.767,63.148 41.289,63.58 41.289,64.628L41.289,65.677L38.919,65.677L38.919,64.833C38.919,62.282 40.195,60.869 42.587,60.869C44.98,60.869 46.255,62.259 46.255,64.811L46.255,65.38C46.255,67.089 45.709,68.137 44.478,68.593L44.478,68.638C45.822,69.139 46.323,70.301 46.323,71.918L46.323,73.331C46.323,75.883 45.048,77.273 42.587,77.273C40.127,77.273 38.851,75.86 38.851,73.308Z" style="fill:rgb(124,132,53);fill-rule:nonzero;"/>
        <rect x="47.892" y="69.185" width="5.012" height="2.051" style="fill:rgb(124,132,53);fill-rule:nonzero;"/>
        <path d="M58.302,63.375L53.244,63.375L53.244,61.098L60.762,61.098L60.762,63.284L56.844,77.044L54.224,77.044L58.302,63.375Z" style="fill:rgb(124,132,53);fill-rule:nonzero;"/>
        <path d="M61.329,77.044L60.464,77.044L60.464,74.538L62.97,74.538L62.97,76.794L61.534,79.779L60.373,79.779L61.329,77.044Z" style="fill:rgb(124,132,53);fill-rule:nonzero;"/>
        <path d="M69.003,75.313C69.003,72.944 69.641,71.509 71.509,69.549C73.423,67.522 73.97,66.451 73.97,64.97C73.97,63.535 73.468,63.148 72.671,63.148C71.874,63.148 71.373,63.58 71.373,64.72L71.373,66.428L69.003,66.428L69.003,64.879C69.003,62.327 70.279,60.869 72.739,60.869C75.2,60.869 76.476,62.327 76.476,64.879C76.476,66.77 75.701,68.41 73.377,70.87C71.874,72.465 71.486,73.308 71.486,74.425L71.486,74.766L76.248,74.766L76.248,77.044L69.003,77.044L69.003,75.313Z" style="fill:rgb(124,132,53);fill-rule:nonzero;"/>
        <path d="M83.17,73.422L83.17,64.72C83.17,63.58 82.669,63.148 81.872,63.148C81.074,63.148 80.573,63.58 80.573,64.72L80.573,73.422C80.573,74.561 81.074,74.994 81.872,74.994C82.669,74.994 83.17,74.561 83.17,73.422ZM78.067,73.263L78.067,64.879C78.067,62.327 79.411,60.869 81.872,60.869C84.332,60.869 85.676,62.327 85.676,64.879L85.676,73.263C85.676,75.815 84.332,77.273 81.872,77.273C79.411,77.273 78.067,75.815 78.067,73.263Z" style="fill:rgb(124,132,53);fill-rule:nonzero;"/>
        <path d="M87.382,75.313C87.382,72.944 88.02,71.509 89.888,69.549C91.801,67.522 92.348,66.451 92.348,64.97C92.348,63.535 91.847,63.148 91.049,63.148C90.252,63.148 89.751,63.58 89.751,64.72L89.751,66.428L87.382,66.428L87.382,64.879C87.382,62.327 88.658,60.869 91.118,60.869C93.578,60.869 94.854,62.327 94.854,64.879C94.854,66.77 94.08,68.41 91.756,70.87C90.252,72.465 89.865,73.308 89.865,74.425L89.865,74.766L94.626,74.766L94.626,77.044L87.382,77.044L87.382,75.313Z" style="fill:rgb(124,132,53);fill-rule:nonzero;"/>
        <path d="M101.549,73.445L101.549,70.62C101.549,69.549 101.116,69.048 100.25,69.048C99.384,69.048 98.951,69.549 98.951,70.62L98.951,73.445C98.951,74.493 99.384,74.994 100.25,74.994C101.116,74.994 101.549,74.493 101.549,73.445ZM96.445,73.263L96.445,65.016C96.445,62.327 97.675,60.869 100.273,60.869C102.733,60.869 104.009,62.327 104.009,64.879L104.009,65.175L101.64,65.175L101.64,64.72C101.64,63.58 101.139,63.148 100.341,63.148C99.452,63.148 98.951,63.58 98.951,65.107L98.951,68.159C99.452,67.226 100.228,66.77 101.275,66.77C103.121,66.77 104.055,68.069 104.055,70.415L104.055,73.263C104.055,75.815 102.71,77.273 100.25,77.273C97.789,77.273 96.445,75.815 96.445,73.263Z" style="fill:rgb(124,132,53);fill-rule:nonzero;"/>
        <path d="M222.039,70.858L222.039,56.573C222.039,52.469 224.167,50.037 228.194,50.037C232.222,50.037 234.35,52.469 234.35,56.573L234.35,59.384L230.397,59.384L230.397,56.306C230.397,54.558 229.562,53.836 228.308,53.836C227.055,53.836 226.219,54.558 226.219,56.306L226.219,71.162C226.219,72.909 227.055,73.594 228.308,73.594C229.562,73.594 230.397,72.909 230.397,71.162L230.397,67.286L234.35,67.286L234.35,70.858C234.35,74.961 232.222,77.393 228.194,77.393C224.167,77.393 222.039,74.961 222.039,70.858Z" style="fill:rgb(124,132,53);fill-rule:nonzero;"/>
        <path d="M245.027,70.972L245.027,56.458C245.027,54.558 244.191,53.836 242.861,53.836C241.532,53.836 240.696,54.558 240.696,56.458L240.696,70.972C240.696,72.871 241.532,73.594 242.861,73.594C244.191,73.594 245.027,72.871 245.027,70.972ZM236.517,70.706L236.517,56.724C236.517,52.469 238.758,50.037 242.861,50.037C246.965,50.037 249.207,52.469 249.207,56.724L249.207,70.706C249.207,74.961 246.965,77.393 242.861,77.393C238.758,77.393 236.517,74.961 236.517,70.706Z" style="fill:rgb(124,132,53);fill-rule:nonzero;"/>
        <path d="M251.944,50.417L256.124,50.417L256.124,73.214L263.001,73.214L263.001,77.013L251.944,77.013L251.944,50.417Z" style="fill:rgb(124,132,53);fill-rule:nonzero;"/>
        <path d="M272.995,70.972L272.995,56.458C272.995,54.558 272.159,53.836 270.829,53.836C269.5,53.836 268.664,54.558 268.664,56.458L268.664,70.972C268.664,72.871 269.5,73.594 270.829,73.594C272.159,73.594 272.995,72.871 272.995,70.972ZM264.484,70.706L264.484,56.724C264.484,52.469 266.726,50.037 270.829,50.037C274.933,50.037 277.175,52.469 277.175,56.724L277.175,70.706C277.175,74.961 274.933,77.393 270.829,77.393C266.726,77.393 264.484,74.961 264.484,70.706Z" style="fill:rgb(124,132,53);fill-rule:nonzero;"/>
        <path d="M285.611,61.816C287.169,61.816 288.119,61.131 288.119,59.004L288.119,56.952C288.119,55.052 287.473,54.216 285.991,54.216L284.092,54.216L284.092,61.816L285.611,61.816ZM279.912,50.417L286.105,50.417C290.437,50.417 292.299,52.43 292.299,56.534L292.299,58.168C292.299,60.904 291.425,62.652 289.563,63.411L289.563,63.488C291.652,64.133 292.336,66.109 292.336,69.111L292.336,73.783C292.336,75.075 292.374,76.026 292.792,77.013L288.537,77.013C288.309,76.329 288.157,75.911 288.157,73.745L288.157,68.882C288.157,66.412 287.436,65.615 285.535,65.615L284.092,65.615L284.092,77.013L279.912,77.013L279.912,50.417Z" style="fill:rgb(124,132,53);fill-rule:nonzero;"/>
        <path d="M302.977,68.199L301.077,54.786L299.215,68.199L302.977,68.199ZM303.509,71.808L298.684,71.808L297.961,77.013L294.086,77.013L298.417,50.417L304.078,50.417L308.41,77.013L304.23,77.013L303.509,71.808Z" style="fill:rgb(124,132,53);fill-rule:nonzero;"/>
        <path d="M316.619,73.214C317.948,73.214 318.746,72.53 318.746,70.63L318.746,56.8C318.746,54.9 317.948,54.216 316.619,54.216L314.491,54.216L314.491,73.214L316.619,73.214ZM310.312,50.417L316.694,50.417C320.874,50.417 322.926,52.735 322.926,56.99L322.926,70.44C322.926,74.696 320.874,77.013 316.694,77.013L310.312,77.013L310.312,50.417Z" style="fill:rgb(124,132,53);fill-rule:nonzero;"/>
        <path d="M333.87,70.972L333.87,56.458C333.87,54.558 333.034,53.836 331.704,53.836C330.375,53.836 329.539,54.558 329.539,56.458L329.539,70.972C329.539,72.871 330.375,73.594 331.704,73.594C333.034,73.594 333.87,72.871 333.87,70.972ZM325.359,70.706L325.359,56.724C325.359,52.469 327.601,50.037 331.704,50.037C335.808,50.037 338.05,52.469 338.05,56.724L338.05,70.706C338.05,74.961 335.808,77.393 331.704,77.393C327.601,77.393 325.359,74.961 325.359,70.706Z" style="fill:rgb(124,132,53);fill-rule:nonzero;"/>
    </g>
    <defs>
        <linearGradient id="_Linear1" x1="0" y1="0" x2="1" y2="0" gradientUnits="userSpaceOnUse" gradientTransform="matrix(7.75691e-13,75.4066,-75.4066,7.75691e-13,163.1,5.30336)"><stop offset="0" style="stop-color:rgb(190,210,237);stop-opacity:1"/><stop offset="0.3" style="stop-color:rgb(88,117,155);stop-opacity:1"/><stop offset="0.5" style="stop-color:rgb(30,86,126);stop-opacity:1"/><stop offset="0.9" style="stop-color:rgb(114,125,66);stop-opacity:1"/><stop offset="1" style="stop-color:rgb(125,133,53);stop-opacity:1"/></linearGradient>
        <linearGradient id="_Linear2" x1="0" y1="0" x2="1" y2="0" gradientUnits="userSpaceOnUse" gradientTransform="matrix(7.75691e-13,75.4066,-75.4066,7.75691e-13,190.524,5.30336)"><stop offset="0" style="stop-color:rgb(190,210,237);stop-opacity:1"/><stop offset="0.3" style="stop-color:rgb(88,117,155);stop-opacity:1"/><stop offset="0.5" style="stop-color:rgb(30,86,126);stop-opacity:1"/><stop offset="0.9" style="stop-color:rgb(114,125,66);stop-opacity:1"/><stop offset="1" style="stop-color:rgb(125,133,53);stop-opacity:1"/></linearGradient>
        <linearGradient id="_Linear3" x1="0" y1="0" x2="1" y2="0" gradientUnits="userSpaceOnUse" gradientTransform="matrix(7.75691e-13,75.4066,-75.4066,7.75691e-13,161.519,5.30336)"><stop offset="0" style="stop-color:rgb(190,210,237);stop-opacity:1"/><stop offset="0.3" style="stop-color:rgb(88,117,155);stop-opacity:1"/><stop offset="0.5" style="stop-color:rgb(30,86,126);stop-opacity:1"/><stop offset="0.9" style="stop-color:rgb(114,125,66);stop-opacity:1"/><stop offset="1" style="stop-color:rgb(125,133,53);stop-opacity:1"/></linearGradient>
        <linearGradient id="_Linear4" x1="0" y1="0" x2="1" y2="0" gradientUnits="userSpaceOnUse" gradientTransform="matrix(7.75691e-13,75.4066,-75.4066,7.75691e-13,144.661,5.30336)"><stop offset="0" style="stop-color:rgb(190,210,237);stop-opacity:1"/><stop offset="0.3" style="stop-color:rgb(88,117,155);stop-opacity:1"/><stop offset="0.5" style="stop-color:rgb(30,86,126);stop-opacity:1"/><stop offset="0.9" style="stop-color:rgb(114,125,66);stop-opacity:1"/><stop offset="1" style="stop-color:rgb(125,133,53);stop-opacity:1"/></linearGradient>
        <linearGradient id="_Linear5" x1="0" y1="0" x2="1" y2="0" gradientUnits="userSpaceOnUse" gradientTransform="matrix(7.75691e-13,75.4066,-75.4066,7.75691e-13,179.649,5.30336)"><stop offset="0" style="stop-color:rgb(190,210,237);stop-opacity:1"/><stop offset="0.3" style="stop-color:rgb(88,117,155);stop-opacity:1"/><stop offset="0.5" style="stop-color:rgb(30,86,126);stop-opacity:1"/><stop offset="0.9" style="stop-color:rgb(114,125,66);stop-opacity:1"/><stop offset="1" style="stop-color:rgb(125,133,53);stop-opacity:1"/></linearGradient>
        <linearGradient id="_Linear6" x1="0" y1="0" x2="1" y2="0" gradientUnits="userSpaceOnUse" gradientTransform="matrix(7.75691e-13,75.4066,-75.4066,7.75691e-13,146.977,5.30336)"><stop offset="0" style="stop-color:rgb(190,210,237);stop-opacity:1"/><stop offset="0.3" style="stop-color:rgb(88,117,155);stop-opacity:1"/><stop offset="0.5" style="stop-color:rgb(30,86,126);stop-opacity:1"/><stop offset="0.9" style="stop-color:rgb(114,125,66);stop-opacity:1"/><stop offset="1" style="stop-color:rgb(125,133,53);stop-opacity:1"/></linearGradient>
    </defs>
</svg>
